<svg width="413" height="413" viewBox="0 0 413 413" fill="none" xmlns="http://www.w3.org/2000/svg">
<mask id="mask0_8040_213" style="mask-type:luminance" maskUnits="userSpaceOnUse" x="0" y="0" width="413" height="413">
<path d="M412.1 0H0V412.1H412.1V0Z" fill="white"/>
</mask>
<g mask="url(#mask0_8040_213)">
<path d="M305.4 389.7C289 389.7 272.6 383.3 260.2 370.9L161.4 271.7C158.2 268.5 153 268.5 149.8 271.7L133 288.5C129.8 291.7 125 291.7 121.8 288.5C118.6 285.3 118.6 280.5 121.8 277.3L138.6 260.5C148.2 250.9 163 250.9 172.6 260.5L271.4 359.7C290.6 378.9 320.2 378.9 339.4 359.7L367.8 331.3C371 328.1 371 322.9 367.8 319.7L355 306.9C351.8 303.7 351.8 298.9 355 295.7C358.2 292.5 363 292.5 366.2 295.7L379 308.5C388.6 318.1 388.6 332.9 379 342.5L350.6 370.9C338.2 383.3 321.8 389.7 305.4 389.7Z" fill="#9B9FAA"/>
<path d="M117.4 338.9L56.9999 399.3C50.5999 405.7 40.5999 405.7 34.1999 399.3L14.1999 379.3C7.79991 372.9 7.79991 362.9 14.1999 356.5L75.3999 295.7C81.3999 289.7 89.3999 286.5 97.7999 286.5L124.6 286.1L126.6 314.1C127 323.3 123.8 332.5 117.4 338.9Z" fill="#D6913C"/>
<path d="M45.7999 412.1C39.7999 412.1 33.3999 409.7 28.5999 404.9L8.5999 384.9C3.7999 380.1 1.3999 374.1 1.3999 367.7C1.3999 361.3 3.7999 355.3 8.5999 350.5L69.7999 289.7C77.3999 282.1 86.9999 278.1 97.7999 278.1L124.6 277.7C128.6 277.7 132.2 280.9 132.6 285.3L134.6 313.3C135 325.3 131 336.5 123 344.5L62.5999 404.9C57.7999 409.7 51.7999 412.1 45.7999 412.1ZM117 294.1L97.7999 294.5C91.3999 294.5 85.3999 296.9 80.9999 301.3L19.7999 362.1C18.1999 363.7 17.3999 365.7 17.3999 367.7C17.3999 369.7 18.1999 371.7 19.7999 373.3L39.7999 393.3C42.9999 396.5 48.1999 396.5 51.3999 393.3L111.8 332.9C116.6 328.1 119 321.3 118.6 314.1L117 294.1Z" fill="#A46210"/>
<path fill-rule="evenodd" clip-rule="evenodd" d="M73.6191 120.862C75.0338 122.711 79.1019 127.211 81.1157 128.989C81.1157 128.989 91.0899 121.078 91.1549 121.12C89.9821 120.237 86.1038 117.645 84.3219 112.523L73.6191 120.862ZM132.406 91.057L213.763 31.3262C212.561 30.643 201.565 25.0829 198.68 23.8715L108.073 94.3072L132.406 91.057Z" fill="#CC2229"/>
<path fill-rule="evenodd" clip-rule="evenodd" d="M116.531 177.271L243.25 70.6781C241.998 69.4977 233.155 61.6463 232.015 60.7102L124.087 153.38L116.531 177.271Z" fill="#F79009"/>
<path fill-rule="evenodd" clip-rule="evenodd" d="M284.76 339.924C289.26 345.238 297.103 346.089 302.636 341.865L367.665 292.225C374.855 286.735 389.012 259.45 394.67 252.374C397.533 248.794 394.442 250.287 390.616 252.795L287.591 320.337C280.97 324.677 279.641 333.879 284.76 339.924Z" fill="#8B288B"/>
<path fill-rule="evenodd" clip-rule="evenodd" d="M158.669 209.361L281.532 106.966C281.532 106.966 273.961 99.0784 273 98.182L148 199L158.669 209.361Z" fill="#F2CA30"/>
<path fill-rule="evenodd" clip-rule="evenodd" d="M302.77 125.684L187.788 239.275C188.907 240.722 196.739 248.236 197.872 249.32L310.79 135.01C310.79 135.01 303.528 126.482 302.77 125.684Z" fill="#17B26A"/>
<path fill-rule="evenodd" clip-rule="evenodd" d="M235.493 257.919L333.858 155C336.492 158.051 346.354 170.824 346.354 170.824L228 282.701L235.493 257.919Z" fill="#5692EF"/>
<path fill-rule="evenodd" clip-rule="evenodd" d="M263.152 313.755L381.451 207.743C380.043 204.905 375.325 196.979 372.627 192.95L251.321 302.315L263.152 313.755Z" fill="#2B77EB"/>
<path d="M305.8 348.5C295.4 348.5 285.4 344.5 277.4 336.9L73.3999 133.3C65.7999 125.7 61.7998 115.7 61.7998 104.9C61.7998 94.1 65.7999 84.1 73.3999 76.5L138.6 11.7C154.2 -3.9 179.4 -3.9 195 11.7L399 215.3C414.6 230.9 414.6 256.1 399 271.7L333.8 336.9C326.2 344.9 315.8 348.5 305.8 348.5ZM166.6 16.1C160.6 16.1 154.2 18.5 149.8 23.3L84.5998 88.1C80.1998 92.5 77.7999 98.5 77.7999 104.9C77.7999 111.3 80.1998 117.3 84.5998 121.7L288.6 325.3C297.8 334.5 313 334.5 322.6 325.3L387.8 260.1C397 250.9 397 235.7 387.8 226.1L183.8 22.5C179 18.1 173 16.1 166.6 16.1Z" fill="rgb(95 95 95)"/>
</g>
</svg>
